<svg width="13" height="14" viewBox="0 0 13 14" fill="none" xmlns="http://www.w3.org/2000/svg">
<path d="M5.15007 -1.12928e-05C4.21032 -0.0152131 3.29375 0.292131 2.55314 0.870792C1.81253 1.44945 1.29262 2.26447 1.08007 3.17999C0.958036 3.76263 0.967585 4.36517 1.10802 4.94365C1.24846 5.52214 1.51624 6.06198 1.89184 6.52382C2.26744 6.98565 2.74139 7.35783 3.27911 7.61321C3.81684 7.86859 4.40478 8.00073 5.00007 7.99999V14H7.00007V1.99999H9.00007V14H11.0001V1.99999H13.0001V-1.12928e-05H5.15007ZM3.00007 3.99999C3.00007 3.46956 3.21078 2.96085 3.58586 2.58578C3.96093 2.2107 4.46964 1.99999 5.00007 1.99999V5.99999C4.46964 5.99999 3.96093 5.78927 3.58586 5.4142C3.21078 5.03913 3.00007 4.53042 3.00007 3.99999Z" fill="#1F1F1F"/>
</svg>
